<?xml version="1.0" encoding="UTF-8" standalone="no"?>
<!DOCTYPE svg PUBLIC "-//W3C//DTD SVG 1.1//EN" "http://www.w3.org/Graphics/SVG/1.1/DTD/svg11.dtd">
<svg width="100%" height="100%" viewBox="0 0 2000 2000" version="1.1" xmlns="http://www.w3.org/2000/svg" xmlns:xlink="http://www.w3.org/1999/xlink" xml:space="preserve" xmlns:serif="http://www.serif.com/" style="fill-rule:evenodd;clip-rule:evenodd;stroke-linejoin:round;stroke-miterlimit:2;">
    <g transform="matrix(1,0,0,1,-2215.15,-2234.2)">
        <g id="Github" transform="matrix(1.18091,0,0,1.41176,5546.42,2338.89)">
            <rect x="-2820.93" y="-74.157" width="1693.61" height="1416.67" style="fill:none;"/>
            <g transform="matrix(0.846805,0,0,0.708334,-4696.73,-1656.71)">
                <path d="M3215.15,2373.83C3690,2373.83 4075.52,2759.35 4075.52,3234.2C4075.52,3709.04 3690,4094.56 3215.15,4094.56C2740.31,4094.56 2354.79,3709.04 2354.79,3234.2C2354.79,2759.35 2740.31,2373.83 3215.15,2373.83ZM3215.15,2649C2883.65,2649 2615.15,2917.5 2615.15,3249C2615.15,3514.5 2786.9,3738.75 3025.4,3818.25C3055.4,3823.5 3066.65,3805.5 3066.65,3789.75C3066.65,3775.5 3065.9,3728.25 3065.9,3678C2915.15,3705.75 2876.15,3641.25 2864.15,3607.5C2857.4,3590.25 2828.15,3537 2802.65,3522.75C2781.65,3511.5 2751.65,3483.75 2801.9,3483C2849.15,3482.25 2882.9,3526.5 2894.15,3544.5C2948.15,3635.25 3034.4,3609.75 3068.9,3594C3074.15,3555 3089.9,3528.75 3107.15,3513.75C2973.65,3498.75 2834.15,3447 2834.15,3217.5C2834.15,3152.25 2857.4,3098.25 2895.65,3056.25C2889.65,3041.25 2868.65,2979.75 2901.65,2897.25C2901.65,2897.25 2951.9,2881.5 3066.65,2958.75C3114.65,2945.25 3165.65,2938.5 3216.65,2938.5C3267.65,2938.5 3318.65,2945.25 3366.65,2958.75C3481.4,2880.75 3531.65,2897.25 3531.65,2897.25C3564.65,2979.75 3543.65,3041.25 3537.65,3056.25C3575.9,3098.25 3599.15,3151.5 3599.15,3217.5C3599.15,3447.75 3458.9,3498.75 3325.4,3513.75C3347.15,3532.5 3365.9,3568.5 3365.9,3624.75C3365.9,3705 3365.15,3769.5 3365.15,3789.75C3365.15,3805.5 3376.4,3824.25 3406.4,3818.25C3643.4,3738.75 3815.15,3513.75 3815.15,3249C3815.15,2917.5 3546.65,2649 3215.15,2649Z" style="fill:rgb(46,204,113);"/>
            </g>
            <g transform="matrix(1.45873,0,0,1.22019,-4900.2,-942.938)">
                <path d="M2005.91,733.772C1697.53,733.772 1447.17,984.135 1447.17,1292.51C1447.17,1600.89 1697.53,1851.25 2005.91,1851.25C2314.28,1851.25 2564.65,1600.89 2564.65,1292.51C2564.65,984.135 2314.28,733.772 2005.91,733.772ZM2005.91,770.054C2294.26,770.054 2528.37,1004.16 2528.37,1292.51C2528.37,1580.87 2294.26,1814.97 2005.91,1814.97C1717.56,1814.97 1483.45,1580.87 1483.45,1292.51C1483.45,1004.16 1717.56,770.054 2005.91,770.054Z" style="fill:rgb(46,204,113);"/>
            </g>
        </g>
    </g>
</svg>
