<?xml version="1.0" encoding="UTF-8" standalone="no"?>
<!DOCTYPE svg PUBLIC "-//W3C//DTD SVG 1.1//EN" "http://www.w3.org/Graphics/SVG/1.1/DTD/svg11.dtd">
<svg width="100%" height="100%" viewBox="0 0 2000 2000" version="1.1" xmlns="http://www.w3.org/2000/svg" xmlns:xlink="http://www.w3.org/1999/xlink" xml:space="preserve" xmlns:serif="http://www.serif.com/" style="fill-rule:evenodd;clip-rule:evenodd;stroke-linejoin:round;stroke-miterlimit:2;">
    <g transform="matrix(1,0,0,1,-6588.34,0)">
        <g id="Linkedin" transform="matrix(1.18091,0,0,1.41176,9919.6,104.692)">
            <rect x="-2820.93" y="-74.157" width="1693.61" height="1416.67" style="fill:none;"/>
            <g transform="matrix(0.846805,0,0,0.708334,-8399.97,-74.1566)">
                <path d="M7588.34,139.637C8063.18,139.637 8448.7,525.153 8448.7,1000C8448.7,1474.85 8063.18,1860.36 7588.34,1860.36C7113.49,1860.36 6727.97,1474.85 6727.97,1000C6727.97,525.153 7113.49,139.637 7588.34,139.637ZM7880,500L7296.67,500C7181.63,500 7088.34,593.292 7088.34,708.333L7088.34,1291.67C7088.34,1406.71 7181.63,1500 7296.67,1500L7880,1500C7995.09,1500 8088.34,1406.71 8088.34,1291.67L8088.34,708.333C8088.34,593.292 7995.09,500 7880,500ZM7421.67,1291.67L7296.67,1291.67L7296.67,833.333L7421.67,833.333L7421.67,1291.67ZM7921.67,1291.67L7796.67,1291.67L7796.67,1058.17C7796.67,917.833 7630,928.458 7630,1058.17L7630,1291.67L7505,1291.67L7505,833.333L7630,833.333L7630,906.875C7688.17,799.125 7921.67,791.167 7921.67,1010.04L7921.67,1291.67ZM7359.17,780.5C7318.92,780.5 7286.25,747.583 7286.25,707C7286.25,666.417 7318.92,633.5 7359.17,633.5C7399.42,633.5 7432.09,666.417 7432.09,707C7432.09,747.583 7399.46,780.5 7359.17,780.5Z" style="fill:rgb(46,204,113);"/>
            </g>
            <g transform="matrix(1.45873,0,0,1.22019,-4900.2,-942.938)">
                <path d="M2005.91,733.772C1697.53,733.772 1447.17,984.135 1447.17,1292.51C1447.17,1600.89 1697.53,1851.25 2005.91,1851.25C2314.28,1851.25 2564.65,1600.89 2564.65,1292.51C2564.65,984.135 2314.28,733.772 2005.91,733.772ZM2005.91,770.054C2294.26,770.054 2528.37,1004.16 2528.37,1292.51C2528.37,1580.87 2294.26,1814.97 2005.91,1814.97C1717.56,1814.97 1483.45,1580.87 1483.45,1292.51C1483.45,1004.16 1717.56,770.054 2005.91,770.054Z" style="fill:rgb(46,204,113);"/>
            </g>
        </g>
    </g>
</svg>
