<?xml version="1.0" encoding="UTF-8" standalone="no"?>
<!DOCTYPE svg PUBLIC "-//W3C//DTD SVG 1.1//EN" "http://www.w3.org/Graphics/SVG/1.1/DTD/svg11.dtd">
<svg width="100%" height="100%" viewBox="0 0 2000 2000" version="1.1" xmlns="http://www.w3.org/2000/svg" xmlns:xlink="http://www.w3.org/1999/xlink" xml:space="preserve" xmlns:serif="http://www.serif.com/" style="fill-rule:evenodd;clip-rule:evenodd;stroke-linejoin:round;stroke-miterlimit:2;">
    <g transform="matrix(1,0,0,1,-8752.71,-1.36424e-12)">
        <g id="Twitter" transform="matrix(1.18091,0,0,1.41176,12084,104.692)">
            <rect x="-2820.93" y="-74.157" width="1693.61" height="1416.67" style="fill:none;"/>
            <g transform="matrix(0.846805,0,0,0.708334,-10232.8,-74.1566)">
                <path d="M9752.71,139.637C10227.6,139.637 10613.1,525.153 10613.1,1000C10613.1,1474.85 10227.6,1860.36 9752.71,1860.36C9277.87,1860.36 8892.35,1474.85 8892.35,1000C8892.35,525.153 9277.87,139.637 9752.71,139.637ZM10252.7,689.864C10215.9,706.182 10176.4,717.21 10134.9,722.17C10177.2,696.777 10209.8,656.571 10225.1,608.665C10185.4,632.174 10141.5,649.248 10094.8,658.451C10057.4,618.578 10004.1,593.661 9945.05,593.661C9831.75,593.661 9739.89,685.519 9739.89,798.819C9739.89,814.898 9741.7,830.557 9745.2,845.572C9574.69,837.017 9423.52,755.339 9322.33,631.215C9304.67,661.517 9294.55,696.759 9294.55,734.358C9294.55,805.534 9330.77,868.331 9385.82,905.121C9352.19,904.056 9320.56,894.828 9292.89,879.462C9292.88,880.317 9292.88,881.177 9292.88,882.04C9292.88,981.444 9363.6,1064.37 9457.45,1083.21C9440.24,1087.9 9422.11,1090.41 9403.4,1090.41C9390.18,1090.41 9377.33,1089.12 9364.8,1086.73C9390.91,1168.24 9466.68,1227.55 9556.45,1229.21C9486.24,1284.23 9397.77,1317.03 9301.66,1317.03C9285.1,1317.03 9268.76,1316.06 9252.71,1314.17C9343.51,1372.38 9451.35,1406.34 9567.21,1406.34C9944.58,1406.34 10150.9,1093.72 10150.9,822.609C10150.9,813.713 10150.7,804.865 10150.3,796.068C10190.4,767.142 10225.2,731.007 10252.7,689.864Z" style="fill:rgb(46,204,113);"/>
            </g>
            <g transform="matrix(1.45873,0,0,1.22019,-4900.2,-942.938)">
                <path d="M2005.91,733.772C1697.53,733.772 1447.17,984.135 1447.17,1292.51C1447.17,1600.89 1697.53,1851.25 2005.91,1851.25C2314.28,1851.25 2564.65,1600.89 2564.65,1292.51C2564.65,984.135 2314.28,733.772 2005.91,733.772ZM2005.91,770.054C2294.26,770.054 2528.37,1004.16 2528.37,1292.51C2528.37,1580.87 2294.26,1814.97 2005.91,1814.97C1717.56,1814.97 1483.45,1580.87 1483.45,1292.51C1483.45,1004.16 1717.56,770.054 2005.91,770.054Z" style="fill:rgb(46,204,113);"/>
            </g>
        </g>
    </g>
</svg>
